<mxfile host="app.diagrams.net" modified="2024-04-22T07:20:21.499Z" agent="Mozilla/5.0 (Windows NT 10.0; Win64; x64) AppleWebKit/537.36 (KHTML, like Gecko) Chrome/123.0.0.0 Safari/537.36" etag="qypKIrDu6uRtvuSJEdOH" version="24.2.7" type="github">
  <diagram id="C5RBs43oDa-KdzZeNtuy" name="Page-1">
    <mxGraphModel dx="3033" dy="1135" grid="1" gridSize="10" guides="1" tooltips="1" connect="1" arrows="1" fold="1" page="1" pageScale="1" pageWidth="827" pageHeight="1169" math="0" shadow="0">
      <root>
        <mxCell id="WIyWlLk6GJQsqaUBKTNV-0" />
        <mxCell id="WIyWlLk6GJQsqaUBKTNV-1" parent="WIyWlLk6GJQsqaUBKTNV-0" />
        <mxCell id="3IvADGGe1elxMChd6s5r-2" style="edgeStyle=orthogonalEdgeStyle;rounded=0;orthogonalLoop=1;jettySize=auto;html=1;" edge="1" parent="WIyWlLk6GJQsqaUBKTNV-1" source="3IvADGGe1elxMChd6s5r-0" target="3IvADGGe1elxMChd6s5r-1">
          <mxGeometry relative="1" as="geometry" />
        </mxCell>
        <mxCell id="3IvADGGe1elxMChd6s5r-0" value="进入战斗&lt;div&gt;获得2金币&lt;/div&gt;" style="shape=display;whiteSpace=wrap;html=1;direction=west;" vertex="1" parent="WIyWlLk6GJQsqaUBKTNV-1">
          <mxGeometry y="310" width="80" height="40" as="geometry" />
        </mxCell>
        <mxCell id="3IvADGGe1elxMChd6s5r-18" style="edgeStyle=orthogonalEdgeStyle;rounded=0;orthogonalLoop=1;jettySize=auto;html=1;entryX=0;entryY=0.5;entryDx=0;entryDy=0;" edge="1" parent="WIyWlLk6GJQsqaUBKTNV-1" source="3IvADGGe1elxMChd6s5r-1" target="3IvADGGe1elxMChd6s5r-16">
          <mxGeometry relative="1" as="geometry" />
        </mxCell>
        <mxCell id="3IvADGGe1elxMChd6s5r-19" style="edgeStyle=orthogonalEdgeStyle;rounded=0;orthogonalLoop=1;jettySize=auto;html=1;entryX=0;entryY=0.5;entryDx=0;entryDy=0;" edge="1" parent="WIyWlLk6GJQsqaUBKTNV-1" source="3IvADGGe1elxMChd6s5r-1" target="3IvADGGe1elxMChd6s5r-17">
          <mxGeometry relative="1" as="geometry" />
        </mxCell>
        <mxCell id="3IvADGGe1elxMChd6s5r-1" value="准备阶段&lt;div&gt;购买防具&lt;/div&gt;" style="rounded=0;whiteSpace=wrap;html=1;" vertex="1" parent="WIyWlLk6GJQsqaUBKTNV-1">
          <mxGeometry x="110" y="300" width="120" height="60" as="geometry" />
        </mxCell>
        <mxCell id="3IvADGGe1elxMChd6s5r-46" style="edgeStyle=orthogonalEdgeStyle;rounded=0;orthogonalLoop=1;jettySize=auto;html=1;entryX=0;entryY=0.5;entryDx=0;entryDy=0;" edge="1" parent="WIyWlLk6GJQsqaUBKTNV-1" source="3IvADGGe1elxMChd6s5r-4" target="3IvADGGe1elxMChd6s5r-44">
          <mxGeometry relative="1" as="geometry" />
        </mxCell>
        <mxCell id="3IvADGGe1elxMChd6s5r-4" value="购买&lt;span style=&quot;background-color: initial;&quot;&gt;激光武器 比较快 1金币 （类比 生成射线后 0.1s 形成伤害轨道）&lt;/span&gt;&lt;div&gt;&lt;div&gt;(速度快,难以伤害护甲）&lt;/div&gt;&lt;/div&gt;" style="rounded=0;whiteSpace=wrap;html=1;" vertex="1" parent="WIyWlLk6GJQsqaUBKTNV-1">
          <mxGeometry x="860" y="370" width="140" height="80" as="geometry" />
        </mxCell>
        <mxCell id="3IvADGGe1elxMChd6s5r-45" style="edgeStyle=orthogonalEdgeStyle;rounded=0;orthogonalLoop=1;jettySize=auto;html=1;" edge="1" parent="WIyWlLk6GJQsqaUBKTNV-1" source="3IvADGGe1elxMChd6s5r-7" target="3IvADGGe1elxMChd6s5r-44">
          <mxGeometry relative="1" as="geometry" />
        </mxCell>
        <mxCell id="3IvADGGe1elxMChd6s5r-7" value="购买弹幕武器 1金币&lt;div&gt;类弹幕类游戏子弹速度 可躲避 无视护甲&lt;/div&gt;" style="rounded=0;whiteSpace=wrap;html=1;" vertex="1" parent="WIyWlLk6GJQsqaUBKTNV-1">
          <mxGeometry x="860" y="220" width="140" height="80" as="geometry" />
        </mxCell>
        <mxCell id="3IvADGGe1elxMChd6s5r-23" style="edgeStyle=orthogonalEdgeStyle;rounded=0;orthogonalLoop=1;jettySize=auto;html=1;" edge="1" parent="WIyWlLk6GJQsqaUBKTNV-1" source="3IvADGGe1elxMChd6s5r-16">
          <mxGeometry relative="1" as="geometry">
            <mxPoint x="469.9999999999998" y="250" as="targetPoint" />
          </mxGeometry>
        </mxCell>
        <mxCell id="3IvADGGe1elxMChd6s5r-16" value="不购买护甲" style="rounded=0;whiteSpace=wrap;html=1;" vertex="1" parent="WIyWlLk6GJQsqaUBKTNV-1">
          <mxGeometry x="294" y="220" width="120" height="60" as="geometry" />
        </mxCell>
        <mxCell id="3IvADGGe1elxMChd6s5r-27" style="edgeStyle=orthogonalEdgeStyle;rounded=0;orthogonalLoop=1;jettySize=auto;html=1;" edge="1" parent="WIyWlLk6GJQsqaUBKTNV-1" source="3IvADGGe1elxMChd6s5r-17" target="3IvADGGe1elxMChd6s5r-21">
          <mxGeometry relative="1" as="geometry" />
        </mxCell>
        <mxCell id="3IvADGGe1elxMChd6s5r-17" value="购买护甲" style="rounded=0;whiteSpace=wrap;html=1;" vertex="1" parent="WIyWlLk6GJQsqaUBKTNV-1">
          <mxGeometry x="294" y="390" width="120" height="60" as="geometry" />
        </mxCell>
        <mxCell id="3IvADGGe1elxMChd6s5r-35" style="edgeStyle=orthogonalEdgeStyle;rounded=0;orthogonalLoop=1;jettySize=auto;html=1;" edge="1" parent="WIyWlLk6GJQsqaUBKTNV-1" source="3IvADGGe1elxMChd6s5r-20" target="3IvADGGe1elxMChd6s5r-7">
          <mxGeometry relative="1" as="geometry" />
        </mxCell>
        <mxCell id="3IvADGGe1elxMChd6s5r-36" style="edgeStyle=orthogonalEdgeStyle;rounded=0;orthogonalLoop=1;jettySize=auto;html=1;entryX=0;entryY=0.5;entryDx=0;entryDy=0;" edge="1" parent="WIyWlLk6GJQsqaUBKTNV-1" source="3IvADGGe1elxMChd6s5r-20" target="3IvADGGe1elxMChd6s5r-4">
          <mxGeometry relative="1" as="geometry" />
        </mxCell>
        <mxCell id="3IvADGGe1elxMChd6s5r-20" value="购买武器" style="rounded=0;whiteSpace=wrap;html=1;" vertex="1" parent="WIyWlLk6GJQsqaUBKTNV-1">
          <mxGeometry x="630" y="300" width="120" height="60" as="geometry" />
        </mxCell>
        <mxCell id="3IvADGGe1elxMChd6s5r-34" style="edgeStyle=orthogonalEdgeStyle;rounded=0;orthogonalLoop=1;jettySize=auto;html=1;" edge="1" parent="WIyWlLk6GJQsqaUBKTNV-1" source="3IvADGGe1elxMChd6s5r-21" target="3IvADGGe1elxMChd6s5r-20">
          <mxGeometry relative="1" as="geometry" />
        </mxCell>
        <mxCell id="3IvADGGe1elxMChd6s5r-21" value="玩家血量受到保护&lt;div&gt;类型武器打不同颜色时受到&lt;b&gt;特殊规则&lt;/b&gt;保护&lt;/div&gt;" style="rounded=0;whiteSpace=wrap;html=1;" vertex="1" parent="WIyWlLk6GJQsqaUBKTNV-1">
          <mxGeometry x="470" y="390" width="120" height="60" as="geometry" />
        </mxCell>
        <mxCell id="3IvADGGe1elxMChd6s5r-22" value="玩家血量只有三格&lt;div&gt;可以由玩家配置 玩家初始无血量&lt;/div&gt;&lt;div&gt;红 蓝 两种类型血量&lt;/div&gt;&lt;div&gt;通过 按住Q E缓慢加上这个血量&lt;/div&gt;&lt;div&gt;大约1s/格&lt;/div&gt;&lt;div&gt;&lt;br&gt;&lt;/div&gt;" style="whiteSpace=wrap;html=1;aspect=fixed;" vertex="1" parent="WIyWlLk6GJQsqaUBKTNV-1">
          <mxGeometry x="60" y="20" width="110" height="110" as="geometry" />
        </mxCell>
        <mxCell id="3IvADGGe1elxMChd6s5r-33" style="edgeStyle=orthogonalEdgeStyle;rounded=0;orthogonalLoop=1;jettySize=auto;html=1;" edge="1" parent="WIyWlLk6GJQsqaUBKTNV-1" source="3IvADGGe1elxMChd6s5r-24" target="3IvADGGe1elxMChd6s5r-20">
          <mxGeometry relative="1" as="geometry" />
        </mxCell>
        <mxCell id="3IvADGGe1elxMChd6s5r-24" value="玩家血量不受保护&lt;div&gt;武器打到对应颜色直接扣血&lt;/div&gt;" style="rounded=0;whiteSpace=wrap;html=1;" vertex="1" parent="WIyWlLk6GJQsqaUBKTNV-1">
          <mxGeometry x="470" y="220" width="120" height="60" as="geometry" />
        </mxCell>
        <mxCell id="3IvADGGe1elxMChd6s5r-28" value="武器 射击为鼠标左右键 分别对应红 蓝" style="whiteSpace=wrap;html=1;aspect=fixed;" vertex="1" parent="WIyWlLk6GJQsqaUBKTNV-1">
          <mxGeometry x="60" y="160" width="110" height="110" as="geometry" />
        </mxCell>
        <mxCell id="3IvADGGe1elxMChd6s5r-37" value="武器槽位可以同时购买两种武器 前提是金钱足够" style="whiteSpace=wrap;html=1;aspect=fixed;" vertex="1" parent="WIyWlLk6GJQsqaUBKTNV-1">
          <mxGeometry x="770" y="40" width="80" height="80" as="geometry" />
        </mxCell>
        <mxCell id="3IvADGGe1elxMChd6s5r-38" value="护甲&amp;nbsp;&lt;div&gt;1 金币 这个钱一开始肯定是乱算的 只是简单模仿一下cs买枪的感觉&lt;/div&gt;" style="whiteSpace=wrap;html=1;aspect=fixed;" vertex="1" parent="WIyWlLk6GJQsqaUBKTNV-1">
          <mxGeometry x="480" y="110" width="90" height="90" as="geometry" />
        </mxCell>
        <mxCell id="3IvADGGe1elxMChd6s5r-76" style="edgeStyle=orthogonalEdgeStyle;rounded=0;orthogonalLoop=1;jettySize=auto;html=1;" edge="1" parent="WIyWlLk6GJQsqaUBKTNV-1" source="3IvADGGe1elxMChd6s5r-44">
          <mxGeometry relative="1" as="geometry">
            <mxPoint x="1260" y="330" as="targetPoint" />
          </mxGeometry>
        </mxCell>
        <mxCell id="3IvADGGe1elxMChd6s5r-128" style="edgeStyle=orthogonalEdgeStyle;rounded=0;orthogonalLoop=1;jettySize=auto;html=1;" edge="1" parent="WIyWlLk6GJQsqaUBKTNV-1" source="3IvADGGe1elxMChd6s5r-44" target="3IvADGGe1elxMChd6s5r-127">
          <mxGeometry relative="1" as="geometry" />
        </mxCell>
        <mxCell id="3IvADGGe1elxMChd6s5r-44" value="进入战斗" style="rounded=0;whiteSpace=wrap;html=1;" vertex="1" parent="WIyWlLk6GJQsqaUBKTNV-1">
          <mxGeometry x="1070" y="300" width="120" height="60" as="geometry" />
        </mxCell>
        <mxCell id="3IvADGGe1elxMChd6s5r-49" style="edgeStyle=orthogonalEdgeStyle;rounded=0;orthogonalLoop=1;jettySize=auto;html=1;" edge="1" parent="WIyWlLk6GJQsqaUBKTNV-1" source="3IvADGGe1elxMChd6s5r-48">
          <mxGeometry relative="1" as="geometry">
            <mxPoint x="140" y="650" as="targetPoint" />
          </mxGeometry>
        </mxCell>
        <mxCell id="3IvADGGe1elxMChd6s5r-51" value="Yes" style="edgeLabel;html=1;align=center;verticalAlign=middle;resizable=0;points=[];" vertex="1" connectable="0" parent="3IvADGGe1elxMChd6s5r-49">
          <mxGeometry x="-0.4381" y="2" relative="1" as="geometry">
            <mxPoint as="offset" />
          </mxGeometry>
        </mxCell>
        <mxCell id="3IvADGGe1elxMChd6s5r-52" style="edgeStyle=orthogonalEdgeStyle;rounded=0;orthogonalLoop=1;jettySize=auto;html=1;" edge="1" parent="WIyWlLk6GJQsqaUBKTNV-1">
          <mxGeometry relative="1" as="geometry">
            <mxPoint x="41" y="810" as="targetPoint" />
            <mxPoint x="41" y="690" as="sourcePoint" />
          </mxGeometry>
        </mxCell>
        <mxCell id="3IvADGGe1elxMChd6s5r-53" value="NO" style="edgeLabel;html=1;align=center;verticalAlign=middle;resizable=0;points=[];" vertex="1" connectable="0" parent="3IvADGGe1elxMChd6s5r-52">
          <mxGeometry x="0.0368" y="4" relative="1" as="geometry">
            <mxPoint as="offset" />
          </mxGeometry>
        </mxCell>
        <mxCell id="3IvADGGe1elxMChd6s5r-48" value="敌方是否存活" style="rhombus;whiteSpace=wrap;html=1;" vertex="1" parent="WIyWlLk6GJQsqaUBKTNV-1">
          <mxGeometry y="610" width="80" height="80" as="geometry" />
        </mxCell>
        <mxCell id="3IvADGGe1elxMChd6s5r-68" style="edgeStyle=orthogonalEdgeStyle;rounded=0;orthogonalLoop=1;jettySize=auto;html=1;entryX=0.5;entryY=0;entryDx=0;entryDy=0;" edge="1" parent="WIyWlLk6GJQsqaUBKTNV-1" source="3IvADGGe1elxMChd6s5r-50" target="3IvADGGe1elxMChd6s5r-75">
          <mxGeometry relative="1" as="geometry">
            <mxPoint x="180" y="810" as="targetPoint" />
          </mxGeometry>
        </mxCell>
        <mxCell id="3IvADGGe1elxMChd6s5r-69" value="No" style="edgeLabel;html=1;align=center;verticalAlign=middle;resizable=0;points=[];" vertex="1" connectable="0" parent="3IvADGGe1elxMChd6s5r-68">
          <mxGeometry x="-0.0374" y="-1" relative="1" as="geometry">
            <mxPoint as="offset" />
          </mxGeometry>
        </mxCell>
        <mxCell id="3IvADGGe1elxMChd6s5r-70" style="edgeStyle=orthogonalEdgeStyle;rounded=0;orthogonalLoop=1;jettySize=auto;html=1;entryX=0;entryY=0.5;entryDx=0;entryDy=0;" edge="1" parent="WIyWlLk6GJQsqaUBKTNV-1" source="3IvADGGe1elxMChd6s5r-50" target="3IvADGGe1elxMChd6s5r-74">
          <mxGeometry relative="1" as="geometry">
            <mxPoint x="320" y="600" as="targetPoint" />
          </mxGeometry>
        </mxCell>
        <mxCell id="3IvADGGe1elxMChd6s5r-71" value="Yes" style="edgeLabel;html=1;align=center;verticalAlign=middle;resizable=0;points=[];" vertex="1" connectable="0" parent="3IvADGGe1elxMChd6s5r-70">
          <mxGeometry x="0.0448" relative="1" as="geometry">
            <mxPoint as="offset" />
          </mxGeometry>
        </mxCell>
        <mxCell id="3IvADGGe1elxMChd6s5r-50" value="是否看到敌人" style="rhombus;whiteSpace=wrap;html=1;" vertex="1" parent="WIyWlLk6GJQsqaUBKTNV-1">
          <mxGeometry x="140" y="610" width="80" height="80" as="geometry" />
        </mxCell>
        <mxCell id="3IvADGGe1elxMChd6s5r-54" value="游戏结束" style="rounded=0;whiteSpace=wrap;html=1;" vertex="1" parent="WIyWlLk6GJQsqaUBKTNV-1">
          <mxGeometry x="-20" y="810" width="120" height="60" as="geometry" />
        </mxCell>
        <mxCell id="3IvADGGe1elxMChd6s5r-57" value="Actor" style="shape=umlActor;verticalLabelPosition=bottom;verticalAlign=top;html=1;outlineConnect=0;" vertex="1" parent="WIyWlLk6GJQsqaUBKTNV-1">
          <mxGeometry x="-710" y="430" width="30" height="60" as="geometry" />
        </mxCell>
        <mxCell id="3IvADGGe1elxMChd6s5r-61" value="玩家视野模拟" style="whiteSpace=wrap;html=1;" vertex="1" parent="WIyWlLk6GJQsqaUBKTNV-1">
          <mxGeometry x="-810" y="340" width="120" height="60" as="geometry" />
        </mxCell>
        <mxCell id="3IvADGGe1elxMChd6s5r-62" value="视野类似破门而入&amp;nbsp;&lt;div&gt;镜头控制方式类似惭愧 相机中心离玩家中心正比鼠标指针距离玩家中心&lt;/div&gt;" style="triangle;whiteSpace=wrap;html=1;direction=west;" vertex="1" parent="WIyWlLk6GJQsqaUBKTNV-1">
          <mxGeometry x="-690" y="350" width="430" height="170" as="geometry" />
        </mxCell>
        <mxCell id="3IvADGGe1elxMChd6s5r-64" value="" style="curved=1;endArrow=classic;html=1;rounded=0;exitX=0.011;exitY=1.03;exitDx=0;exitDy=0;exitPerimeter=0;" edge="1" parent="WIyWlLk6GJQsqaUBKTNV-1">
          <mxGeometry width="50" height="50" relative="1" as="geometry">
            <mxPoint x="-334.73" y="339.9999999999999" as="sourcePoint" />
            <mxPoint x="-380" y="255.1" as="targetPoint" />
            <Array as="points">
              <mxPoint x="-340" y="325.1" />
              <mxPoint x="-350" y="305.1" />
            </Array>
          </mxGeometry>
        </mxCell>
        <mxCell id="3IvADGGe1elxMChd6s5r-67" value="" style="curved=1;endArrow=classic;html=1;rounded=0;exitX=0.011;exitY=1.03;exitDx=0;exitDy=0;exitPerimeter=0;" edge="1" parent="WIyWlLk6GJQsqaUBKTNV-1">
          <mxGeometry width="50" height="50" relative="1" as="geometry">
            <mxPoint x="-340" y="537" as="sourcePoint" />
            <mxPoint x="-390" y="632" as="targetPoint" />
            <Array as="points">
              <mxPoint x="-350" y="582" />
              <mxPoint x="-370" y="622" />
            </Array>
          </mxGeometry>
        </mxCell>
        <mxCell id="3IvADGGe1elxMChd6s5r-79" style="edgeStyle=orthogonalEdgeStyle;rounded=0;orthogonalLoop=1;jettySize=auto;html=1;" edge="1" parent="WIyWlLk6GJQsqaUBKTNV-1" source="3IvADGGe1elxMChd6s5r-74">
          <mxGeometry relative="1" as="geometry">
            <mxPoint x="460" y="650" as="targetPoint" />
          </mxGeometry>
        </mxCell>
        <mxCell id="3IvADGGe1elxMChd6s5r-80" value="Yes" style="edgeLabel;html=1;align=center;verticalAlign=middle;resizable=0;points=[];" vertex="1" connectable="0" parent="3IvADGGe1elxMChd6s5r-79">
          <mxGeometry x="-0.0347" y="-1" relative="1" as="geometry">
            <mxPoint as="offset" />
          </mxGeometry>
        </mxCell>
        <mxCell id="3IvADGGe1elxMChd6s5r-82" style="edgeStyle=orthogonalEdgeStyle;rounded=0;orthogonalLoop=1;jettySize=auto;html=1;" edge="1" parent="WIyWlLk6GJQsqaUBKTNV-1" source="3IvADGGe1elxMChd6s5r-74" target="3IvADGGe1elxMChd6s5r-81">
          <mxGeometry relative="1" as="geometry" />
        </mxCell>
        <mxCell id="3IvADGGe1elxMChd6s5r-83" value="NO" style="edgeLabel;html=1;align=center;verticalAlign=middle;resizable=0;points=[];" vertex="1" connectable="0" parent="3IvADGGe1elxMChd6s5r-82">
          <mxGeometry x="-0.2017" y="3" relative="1" as="geometry">
            <mxPoint as="offset" />
          </mxGeometry>
        </mxCell>
        <mxCell id="3IvADGGe1elxMChd6s5r-74" value="敌人是否攻击" style="rhombus;whiteSpace=wrap;html=1;" vertex="1" parent="WIyWlLk6GJQsqaUBKTNV-1">
          <mxGeometry x="294" y="610" width="80" height="80" as="geometry" />
        </mxCell>
        <mxCell id="3IvADGGe1elxMChd6s5r-75" value="继续搜索&amp;nbsp;" style="rounded=0;whiteSpace=wrap;html=1;" vertex="1" parent="WIyWlLk6GJQsqaUBKTNV-1">
          <mxGeometry x="120" y="810" width="120" height="60" as="geometry" />
        </mxCell>
        <mxCell id="3IvADGGe1elxMChd6s5r-125" value="" style="edgeStyle=orthogonalEdgeStyle;rounded=0;orthogonalLoop=1;jettySize=auto;html=1;" edge="1" parent="WIyWlLk6GJQsqaUBKTNV-1" source="3IvADGGe1elxMChd6s5r-77" target="3IvADGGe1elxMChd6s5r-124">
          <mxGeometry relative="1" as="geometry" />
        </mxCell>
        <mxCell id="3IvADGGe1elxMChd6s5r-126" value="Yes" style="edgeLabel;html=1;align=center;verticalAlign=middle;resizable=0;points=[];" vertex="1" connectable="0" parent="3IvADGGe1elxMChd6s5r-125">
          <mxGeometry x="-0.4667" relative="1" as="geometry">
            <mxPoint as="offset" />
          </mxGeometry>
        </mxCell>
        <mxCell id="3IvADGGe1elxMChd6s5r-77" value="游戏时间是否结束&lt;div&gt;2min&lt;/div&gt;" style="rhombus;whiteSpace=wrap;html=1;" vertex="1" parent="WIyWlLk6GJQsqaUBKTNV-1">
          <mxGeometry x="1260" y="290" width="80" height="80" as="geometry" />
        </mxCell>
        <mxCell id="3IvADGGe1elxMChd6s5r-81" value="攻击敌人" style="rounded=0;whiteSpace=wrap;html=1;" vertex="1" parent="WIyWlLk6GJQsqaUBKTNV-1">
          <mxGeometry x="274" y="810" width="120" height="60" as="geometry" />
        </mxCell>
        <mxCell id="3IvADGGe1elxMChd6s5r-86" style="edgeStyle=orthogonalEdgeStyle;rounded=0;orthogonalLoop=1;jettySize=auto;html=1;entryX=0;entryY=0.5;entryDx=0;entryDy=0;" edge="1" parent="WIyWlLk6GJQsqaUBKTNV-1" source="3IvADGGe1elxMChd6s5r-84" target="3IvADGGe1elxMChd6s5r-85">
          <mxGeometry relative="1" as="geometry" />
        </mxCell>
        <mxCell id="3IvADGGe1elxMChd6s5r-88" value="Yes" style="edgeLabel;html=1;align=center;verticalAlign=middle;resizable=0;points=[];" vertex="1" connectable="0" parent="3IvADGGe1elxMChd6s5r-86">
          <mxGeometry x="-0.1414" y="-3" relative="1" as="geometry">
            <mxPoint as="offset" />
          </mxGeometry>
        </mxCell>
        <mxCell id="3IvADGGe1elxMChd6s5r-87" style="edgeStyle=orthogonalEdgeStyle;rounded=0;orthogonalLoop=1;jettySize=auto;html=1;" edge="1" parent="WIyWlLk6GJQsqaUBKTNV-1" source="3IvADGGe1elxMChd6s5r-84">
          <mxGeometry relative="1" as="geometry">
            <mxPoint x="500" y="810" as="targetPoint" />
          </mxGeometry>
        </mxCell>
        <mxCell id="3IvADGGe1elxMChd6s5r-89" value="No" style="edgeLabel;html=1;align=center;verticalAlign=middle;resizable=0;points=[];" vertex="1" connectable="0" parent="3IvADGGe1elxMChd6s5r-87">
          <mxGeometry x="-0.1706" y="-2" relative="1" as="geometry">
            <mxPoint as="offset" />
          </mxGeometry>
        </mxCell>
        <mxCell id="3IvADGGe1elxMChd6s5r-84" value="是否躲避" style="rhombus;whiteSpace=wrap;html=1;" vertex="1" parent="WIyWlLk6GJQsqaUBKTNV-1">
          <mxGeometry x="460" y="610" width="80" height="80" as="geometry" />
        </mxCell>
        <mxCell id="3IvADGGe1elxMChd6s5r-85" value="位移/或者通过闪避躲避攻击" style="rounded=0;whiteSpace=wrap;html=1;" vertex="1" parent="WIyWlLk6GJQsqaUBKTNV-1">
          <mxGeometry x="620" y="620" width="120" height="60" as="geometry" />
        </mxCell>
        <mxCell id="3IvADGGe1elxMChd6s5r-93" value="" style="edgeStyle=orthogonalEdgeStyle;rounded=0;orthogonalLoop=1;jettySize=auto;html=1;" edge="1" parent="WIyWlLk6GJQsqaUBKTNV-1" source="3IvADGGe1elxMChd6s5r-91" target="3IvADGGe1elxMChd6s5r-92">
          <mxGeometry relative="1" as="geometry" />
        </mxCell>
        <mxCell id="3IvADGGe1elxMChd6s5r-91" value="受击" style="rounded=0;whiteSpace=wrap;html=1;" vertex="1" parent="WIyWlLk6GJQsqaUBKTNV-1">
          <mxGeometry x="440" y="810" width="120" height="60" as="geometry" />
        </mxCell>
        <mxCell id="3IvADGGe1elxMChd6s5r-95" value="" style="edgeStyle=orthogonalEdgeStyle;rounded=0;orthogonalLoop=1;jettySize=auto;html=1;" edge="1" parent="WIyWlLk6GJQsqaUBKTNV-1" source="3IvADGGe1elxMChd6s5r-92" target="3IvADGGe1elxMChd6s5r-94">
          <mxGeometry relative="1" as="geometry" />
        </mxCell>
        <mxCell id="3IvADGGe1elxMChd6s5r-102" style="edgeStyle=orthogonalEdgeStyle;rounded=0;orthogonalLoop=1;jettySize=auto;html=1;" edge="1" parent="WIyWlLk6GJQsqaUBKTNV-1" source="3IvADGGe1elxMChd6s5r-92" target="3IvADGGe1elxMChd6s5r-101">
          <mxGeometry relative="1" as="geometry" />
        </mxCell>
        <mxCell id="3IvADGGe1elxMChd6s5r-103" value="No" style="edgeLabel;html=1;align=center;verticalAlign=middle;resizable=0;points=[];" vertex="1" connectable="0" parent="3IvADGGe1elxMChd6s5r-102">
          <mxGeometry x="-0.7233" y="-2" relative="1" as="geometry">
            <mxPoint as="offset" />
          </mxGeometry>
        </mxCell>
        <mxCell id="3IvADGGe1elxMChd6s5r-147" value="Yes" style="edgeStyle=orthogonalEdgeStyle;rounded=0;orthogonalLoop=1;jettySize=auto;html=1;entryX=1;entryY=0.5;entryDx=0;entryDy=0;" edge="1" parent="WIyWlLk6GJQsqaUBKTNV-1" source="3IvADGGe1elxMChd6s5r-92" target="3IvADGGe1elxMChd6s5r-146">
          <mxGeometry relative="1" as="geometry" />
        </mxCell>
        <mxCell id="3IvADGGe1elxMChd6s5r-92" value="是否有护甲" style="rhombus;whiteSpace=wrap;html=1;rounded=0;" vertex="1" parent="WIyWlLk6GJQsqaUBKTNV-1">
          <mxGeometry x="460" y="940" width="80" height="80" as="geometry" />
        </mxCell>
        <mxCell id="3IvADGGe1elxMChd6s5r-94" value="受到激光武器攻击&amp;nbsp;&lt;div&gt;扣血&lt;/div&gt;" style="whiteSpace=wrap;html=1;rounded=0;" vertex="1" parent="WIyWlLk6GJQsqaUBKTNV-1">
          <mxGeometry x="610" y="890" width="170" height="90" as="geometry" />
        </mxCell>
        <mxCell id="3IvADGGe1elxMChd6s5r-101" value="受到弹幕武器工具&amp;nbsp;&lt;div&gt;同色直接扣除且受到0.5-1s缓慢效果（负面 buff）&lt;/div&gt;&lt;div&gt;异色直接扣除&lt;/div&gt;" style="rounded=0;whiteSpace=wrap;html=1;" vertex="1" parent="WIyWlLk6GJQsqaUBKTNV-1">
          <mxGeometry x="610" y="1000" width="170" height="80" as="geometry" />
        </mxCell>
        <mxCell id="3IvADGGe1elxMChd6s5r-113" value="" style="edgeStyle=orthogonalEdgeStyle;rounded=0;orthogonalLoop=1;jettySize=auto;html=1;" edge="1" parent="WIyWlLk6GJQsqaUBKTNV-1" source="3IvADGGe1elxMChd6s5r-111" target="3IvADGGe1elxMChd6s5r-117">
          <mxGeometry relative="1" as="geometry">
            <mxPoint x="-570" y="930" as="targetPoint" />
          </mxGeometry>
        </mxCell>
        <mxCell id="3IvADGGe1elxMChd6s5r-114" value="Yes" style="edgeLabel;html=1;align=center;verticalAlign=middle;resizable=0;points=[];" vertex="1" connectable="0" parent="3IvADGGe1elxMChd6s5r-113">
          <mxGeometry x="-0.1" y="-1" relative="1" as="geometry">
            <mxPoint as="offset" />
          </mxGeometry>
        </mxCell>
        <mxCell id="3IvADGGe1elxMChd6s5r-167" value="" style="edgeStyle=orthogonalEdgeStyle;rounded=0;orthogonalLoop=1;jettySize=auto;html=1;" edge="1" parent="WIyWlLk6GJQsqaUBKTNV-1" source="3IvADGGe1elxMChd6s5r-111" target="3IvADGGe1elxMChd6s5r-166">
          <mxGeometry relative="1" as="geometry" />
        </mxCell>
        <mxCell id="3IvADGGe1elxMChd6s5r-168" value="No" style="edgeLabel;html=1;align=center;verticalAlign=middle;resizable=0;points=[];" vertex="1" connectable="0" parent="3IvADGGe1elxMChd6s5r-167">
          <mxGeometry x="-0.2547" y="2" relative="1" as="geometry">
            <mxPoint as="offset" />
          </mxGeometry>
        </mxCell>
        <mxCell id="3IvADGGe1elxMChd6s5r-111" value="是否再受到同色攻击" style="rhombus;whiteSpace=wrap;html=1;" vertex="1" parent="WIyWlLk6GJQsqaUBKTNV-1">
          <mxGeometry x="-515" y="890" width="80" height="80" as="geometry" />
        </mxCell>
        <mxCell id="3IvADGGe1elxMChd6s5r-122" value="" style="edgeStyle=orthogonalEdgeStyle;rounded=0;orthogonalLoop=1;jettySize=auto;html=1;" edge="1" parent="WIyWlLk6GJQsqaUBKTNV-1" source="3IvADGGe1elxMChd6s5r-115" target="3IvADGGe1elxMChd6s5r-121">
          <mxGeometry relative="1" as="geometry" />
        </mxCell>
        <mxCell id="3IvADGGe1elxMChd6s5r-123" value="Yes" style="edgeLabel;html=1;align=center;verticalAlign=middle;resizable=0;points=[];" vertex="1" connectable="0" parent="3IvADGGe1elxMChd6s5r-122">
          <mxGeometry x="0.0349" relative="1" as="geometry">
            <mxPoint as="offset" />
          </mxGeometry>
        </mxCell>
        <mxCell id="3IvADGGe1elxMChd6s5r-138" style="edgeStyle=orthogonalEdgeStyle;rounded=0;orthogonalLoop=1;jettySize=auto;html=1;" edge="1" parent="WIyWlLk6GJQsqaUBKTNV-1" source="3IvADGGe1elxMChd6s5r-115" target="3IvADGGe1elxMChd6s5r-137">
          <mxGeometry relative="1" as="geometry" />
        </mxCell>
        <mxCell id="3IvADGGe1elxMChd6s5r-140" value="No" style="edgeLabel;html=1;align=center;verticalAlign=middle;resizable=0;points=[];" vertex="1" connectable="0" parent="3IvADGGe1elxMChd6s5r-138">
          <mxGeometry x="0.006" y="-1" relative="1" as="geometry">
            <mxPoint as="offset" />
          </mxGeometry>
        </mxCell>
        <mxCell id="3IvADGGe1elxMChd6s5r-115" value="是否同色" style="rhombus;whiteSpace=wrap;html=1;" vertex="1" parent="WIyWlLk6GJQsqaUBKTNV-1">
          <mxGeometry x="144" y="890" width="80" height="80" as="geometry" />
        </mxCell>
        <mxCell id="3IvADGGe1elxMChd6s5r-117" value="失去护甲" style="whiteSpace=wrap;html=1;rounded=0;" vertex="1" parent="WIyWlLk6GJQsqaUBKTNV-1">
          <mxGeometry x="-690" y="900" width="120" height="60" as="geometry" />
        </mxCell>
        <mxCell id="3IvADGGe1elxMChd6s5r-121" value="绕过护甲 扣除伤害" style="whiteSpace=wrap;html=1;" vertex="1" parent="WIyWlLk6GJQsqaUBKTNV-1">
          <mxGeometry x="124" y="1060" width="120" height="60" as="geometry" />
        </mxCell>
        <mxCell id="3IvADGGe1elxMChd6s5r-124" value="游戏结束" style="whiteSpace=wrap;html=1;" vertex="1" parent="WIyWlLk6GJQsqaUBKTNV-1">
          <mxGeometry x="1400" y="300" width="120" height="60" as="geometry" />
        </mxCell>
        <mxCell id="3IvADGGe1elxMChd6s5r-129" style="edgeStyle=orthogonalEdgeStyle;rounded=0;orthogonalLoop=1;jettySize=auto;html=1;" edge="1" parent="WIyWlLk6GJQsqaUBKTNV-1" source="3IvADGGe1elxMChd6s5r-127">
          <mxGeometry relative="1" as="geometry">
            <mxPoint x="40" y="620" as="targetPoint" />
          </mxGeometry>
        </mxCell>
        <mxCell id="3IvADGGe1elxMChd6s5r-130" value="Yes" style="edgeLabel;html=1;align=center;verticalAlign=middle;resizable=0;points=[];" vertex="1" connectable="0" parent="3IvADGGe1elxMChd6s5r-129">
          <mxGeometry x="-0.5659" y="-2" relative="1" as="geometry">
            <mxPoint as="offset" />
          </mxGeometry>
        </mxCell>
        <mxCell id="3IvADGGe1elxMChd6s5r-132" value="" style="edgeStyle=orthogonalEdgeStyle;rounded=0;orthogonalLoop=1;jettySize=auto;html=1;" edge="1" parent="WIyWlLk6GJQsqaUBKTNV-1" source="3IvADGGe1elxMChd6s5r-127" target="3IvADGGe1elxMChd6s5r-131">
          <mxGeometry relative="1" as="geometry" />
        </mxCell>
        <mxCell id="3IvADGGe1elxMChd6s5r-133" value="No" style="edgeLabel;html=1;align=center;verticalAlign=middle;resizable=0;points=[];" vertex="1" connectable="0" parent="3IvADGGe1elxMChd6s5r-132">
          <mxGeometry x="0.1" y="-2" relative="1" as="geometry">
            <mxPoint as="offset" />
          </mxGeometry>
        </mxCell>
        <mxCell id="3IvADGGe1elxMChd6s5r-127" value="是否正在战斗" style="rhombus;whiteSpace=wrap;html=1;" vertex="1" parent="WIyWlLk6GJQsqaUBKTNV-1">
          <mxGeometry x="1090" y="510" width="80" height="80" as="geometry" />
        </mxCell>
        <mxCell id="3IvADGGe1elxMChd6s5r-135" value="" style="edgeStyle=orthogonalEdgeStyle;rounded=0;orthogonalLoop=1;jettySize=auto;html=1;" edge="1" parent="WIyWlLk6GJQsqaUBKTNV-1" source="3IvADGGe1elxMChd6s5r-131" target="3IvADGGe1elxMChd6s5r-134">
          <mxGeometry relative="1" as="geometry" />
        </mxCell>
        <mxCell id="3IvADGGe1elxMChd6s5r-131" value="是否配置/恢复血量" style="rhombus;whiteSpace=wrap;html=1;" vertex="1" parent="WIyWlLk6GJQsqaUBKTNV-1">
          <mxGeometry x="1360" y="510" width="80" height="80" as="geometry" />
        </mxCell>
        <mxCell id="3IvADGGe1elxMChd6s5r-134" value="玩家不在战斗就可以加血配置血量 有空格（3格）就加到空格 没空格就从0位置覆盖" style="whiteSpace=wrap;html=1;" vertex="1" parent="WIyWlLk6GJQsqaUBKTNV-1">
          <mxGeometry x="1340" y="680" width="160" height="80" as="geometry" />
        </mxCell>
        <mxCell id="3IvADGGe1elxMChd6s5r-139" style="edgeStyle=orthogonalEdgeStyle;rounded=0;orthogonalLoop=1;jettySize=auto;html=1;entryX=1;entryY=0.5;entryDx=0;entryDy=0;" edge="1" parent="WIyWlLk6GJQsqaUBKTNV-1" source="3IvADGGe1elxMChd6s5r-137" target="3IvADGGe1elxMChd6s5r-161">
          <mxGeometry relative="1" as="geometry">
            <mxPoint x="-130" y="930" as="targetPoint" />
          </mxGeometry>
        </mxCell>
        <mxCell id="3IvADGGe1elxMChd6s5r-173" value="" style="edgeStyle=orthogonalEdgeStyle;rounded=0;orthogonalLoop=1;jettySize=auto;html=1;" edge="1" parent="WIyWlLk6GJQsqaUBKTNV-1" source="3IvADGGe1elxMChd6s5r-137" target="3IvADGGe1elxMChd6s5r-172">
          <mxGeometry relative="1" as="geometry" />
        </mxCell>
        <mxCell id="3IvADGGe1elxMChd6s5r-137" value="异色格 护甲进入保护状态&amp;nbsp;&lt;div&gt;0.5秒后恢复状态&lt;/div&gt;" style="rounded=0;whiteSpace=wrap;html=1;" vertex="1" parent="WIyWlLk6GJQsqaUBKTNV-1">
          <mxGeometry x="-70" y="900" width="120" height="60" as="geometry" />
        </mxCell>
        <mxCell id="3IvADGGe1elxMChd6s5r-150" style="edgeStyle=orthogonalEdgeStyle;rounded=0;orthogonalLoop=1;jettySize=auto;html=1;exitX=0;exitY=0.5;exitDx=0;exitDy=0;" edge="1" parent="WIyWlLk6GJQsqaUBKTNV-1" source="3IvADGGe1elxMChd6s5r-146" target="3IvADGGe1elxMChd6s5r-115">
          <mxGeometry relative="1" as="geometry" />
        </mxCell>
        <mxCell id="3IvADGGe1elxMChd6s5r-151" value="Yes" style="edgeLabel;html=1;align=center;verticalAlign=middle;resizable=0;points=[];" vertex="1" connectable="0" parent="3IvADGGe1elxMChd6s5r-150">
          <mxGeometry x="-0.0435" y="1" relative="1" as="geometry">
            <mxPoint y="1" as="offset" />
          </mxGeometry>
        </mxCell>
        <mxCell id="3IvADGGe1elxMChd6s5r-155" value="" style="edgeStyle=orthogonalEdgeStyle;rounded=0;orthogonalLoop=1;jettySize=auto;html=1;" edge="1" parent="WIyWlLk6GJQsqaUBKTNV-1" source="3IvADGGe1elxMChd6s5r-146" target="3IvADGGe1elxMChd6s5r-154">
          <mxGeometry relative="1" as="geometry" />
        </mxCell>
        <mxCell id="3IvADGGe1elxMChd6s5r-156" value="No" style="edgeLabel;html=1;align=center;verticalAlign=middle;resizable=0;points=[];" vertex="1" connectable="0" parent="3IvADGGe1elxMChd6s5r-155">
          <mxGeometry x="-0.2407" relative="1" as="geometry">
            <mxPoint as="offset" />
          </mxGeometry>
        </mxCell>
        <mxCell id="3IvADGGe1elxMChd6s5r-146" value="是否是激光武器" style="rhombus;whiteSpace=wrap;html=1;" vertex="1" parent="WIyWlLk6GJQsqaUBKTNV-1">
          <mxGeometry x="314" y="890" width="80" height="80" as="geometry" />
        </mxCell>
        <mxCell id="3IvADGGe1elxMChd6s5r-163" style="edgeStyle=orthogonalEdgeStyle;rounded=0;orthogonalLoop=1;jettySize=auto;html=1;" edge="1" parent="WIyWlLk6GJQsqaUBKTNV-1" source="3IvADGGe1elxMChd6s5r-154" target="3IvADGGe1elxMChd6s5r-101">
          <mxGeometry relative="1" as="geometry" />
        </mxCell>
        <mxCell id="3IvADGGe1elxMChd6s5r-154" value="扣血" style="whiteSpace=wrap;html=1;" vertex="1" parent="WIyWlLk6GJQsqaUBKTNV-1">
          <mxGeometry x="294" y="1060" width="120" height="60" as="geometry" />
        </mxCell>
        <mxCell id="3IvADGGe1elxMChd6s5r-162" style="edgeStyle=orthogonalEdgeStyle;rounded=0;orthogonalLoop=1;jettySize=auto;html=1;entryX=1;entryY=0.5;entryDx=0;entryDy=0;" edge="1" parent="WIyWlLk6GJQsqaUBKTNV-1" source="3IvADGGe1elxMChd6s5r-161" target="3IvADGGe1elxMChd6s5r-111">
          <mxGeometry relative="1" as="geometry" />
        </mxCell>
        <mxCell id="3IvADGGe1elxMChd6s5r-161" value="进入保护状态 当前格随机变色" style="rounded=0;whiteSpace=wrap;html=1;" vertex="1" parent="WIyWlLk6GJQsqaUBKTNV-1">
          <mxGeometry x="-390" y="900" width="120" height="60" as="geometry" />
        </mxCell>
        <mxCell id="3IvADGGe1elxMChd6s5r-166" value="攻击失败" style="whiteSpace=wrap;html=1;" vertex="1" parent="WIyWlLk6GJQsqaUBKTNV-1">
          <mxGeometry x="-535" y="1060" width="120" height="60" as="geometry" />
        </mxCell>
        <mxCell id="3IvADGGe1elxMChd6s5r-171" style="edgeStyle=orthogonalEdgeStyle;rounded=0;orthogonalLoop=1;jettySize=auto;html=1;entryX=0.545;entryY=0.982;entryDx=0;entryDy=0;entryPerimeter=0;" edge="1" parent="WIyWlLk6GJQsqaUBKTNV-1" source="3IvADGGe1elxMChd6s5r-166" target="3IvADGGe1elxMChd6s5r-161">
          <mxGeometry relative="1" as="geometry" />
        </mxCell>
        <mxCell id="3IvADGGe1elxMChd6s5r-175" value="" style="edgeStyle=orthogonalEdgeStyle;rounded=0;orthogonalLoop=1;jettySize=auto;html=1;" edge="1" parent="WIyWlLk6GJQsqaUBKTNV-1" source="3IvADGGe1elxMChd6s5r-172" target="3IvADGGe1elxMChd6s5r-174">
          <mxGeometry relative="1" as="geometry" />
        </mxCell>
        <mxCell id="3IvADGGe1elxMChd6s5r-176" value="Yes" style="edgeLabel;html=1;align=center;verticalAlign=middle;resizable=0;points=[];" vertex="1" connectable="0" parent="3IvADGGe1elxMChd6s5r-175">
          <mxGeometry x="0.4359" y="-2" relative="1" as="geometry">
            <mxPoint as="offset" />
          </mxGeometry>
        </mxCell>
        <mxCell id="3IvADGGe1elxMChd6s5r-172" value="护盾是否在保护状态" style="rhombus;whiteSpace=wrap;html=1;rounded=0;" vertex="1" parent="WIyWlLk6GJQsqaUBKTNV-1">
          <mxGeometry x="-50" y="1030" width="80" height="80" as="geometry" />
        </mxCell>
        <mxCell id="3IvADGGe1elxMChd6s5r-174" value="玩家移速提高 射速提高（获得增益buff）" style="whiteSpace=wrap;html=1;rounded=0;" vertex="1" parent="WIyWlLk6GJQsqaUBKTNV-1">
          <mxGeometry x="-270" y="1040" width="120" height="60" as="geometry" />
        </mxCell>
      </root>
    </mxGraphModel>
  </diagram>
</mxfile>
